PathFileType	4	(X/Y/Z)	C:\Users\Basilio\Documents\Thesis Gigler\squatting_fais\c3dfiles\075\SLS_back_pre3\markers_experimental.trc
DataRate	CameraRate	NumFrames	NumMarkers	Units	OrigDataRate	OrigDataStartFrame	OrigNumFrames
200.000000	200.000000	4	61	mm	200.000000	0	1336
Frame#	Time	FHD			LBHD			C7			T10			CLAV			LSHO			LUUPA			LMUPA			LDUPA			LLEP			LMEP			LRAD			LUL			LRFIN			RSHO			RUPA1			RMUPA			RDUPA			RLEP			RMEP			RRAD			RUL			RUFIN			LASI			RASI			USACR			LSACR			RSACR			LTHI1			LTHI2			LTHI3			LTHI4			LLFC			LMFC			LTIB1			LTIB2			LTIB3			LTIB4			LLMAL			LMMAL			LHEE			LMT1			LMT2			LMT5			RTHI			RTHI2			RTHI3			RTHI4			RLFC			RMFC			RTIB1			RTIB2			RTIB3			RTIB4			RLMAL			RMMAL			RHEE			RMT1			RMT2			RMT5			RBHD			
		X1	Y1	Z1	X2	Y2	Z2	X3	Y3	Z3	X4	Y4	Z4	X5	Y5	Z5	X6	Y6	Z6	X7	Y7	Z7	X8	Y8	Z8	X9	Y9	Z9	X10	Y10	Z10	X11	Y11	Z11	X12	Y12	Z12	X13	Y13	Z13	X14	Y14	Z14	X15	Y15	Z15	X16	Y16	Z16	X17	Y17	Z17	X18	Y18	Z18	X19	Y19	Z19	X20	Y20	Z20	X21	Y21	Z21	X22	Y22	Z22	X23	Y23	Z23	X24	Y24	Z24	X25	Y25	Z25	X26	Y26	Z26	X27	Y27	Z27	X28	Y28	Z28	X29	Y29	Z29	X30	Y30	Z30	X31	Y31	Z31	X32	Y32	Z32	X33	Y33	Z33	X34	Y34	Z34	X35	Y35	Z35	X36	Y36	Z36	X37	Y37	Z37	X38	Y38	Z38	X39	Y39	Z39	X40	Y40	Z40	X41	Y41	Z41	X42	Y42	Z42	X43	Y43	Z43	X44	Y44	Z44	X45	Y45	Z45	X46	Y46	Z46	X47	Y47	Z47	X48	Y48	Z48	X49	Y49	Z49	X50	Y50	Z50	X51	Y51	Z51	X52	Y52	Z52	X53	Y53	Z53	X54	Y54	Z54	X55	Y55	Z55	X56	Y56	Z56	X57	Y57	Z57	X58	Y58	Z58	X59	Y59	Z59	X60	Y60	Z60	X61	Y61	Z61	

1	0	-272.5222473144532	1719.119995117188	-851.4571533203127	-401.5832824707032	1598.65283203125	-940.7862548828127	-451.4350585937501	1480.79638671875	-877.3115234375002	-457.374969482422	1154.753173828125	-874.503356933594	-307.6795654296876	1423.074584960938	-871.1482543945315	-336.1061401367188	1448.613403320313	-1034.315185546875	-347.7984313964844	1250.88720703125	-1155.928955078125	-307.5157165527344	1227.760131835938	-1136.705932617188	-331.3772277832032	1184.58154296875	-1173.082275390625	-303.0471191406251	1103.430908203125	-1169.88671875	-375.6577453613282	1085.824584960938	-1113.355224609375	-202.330795288086	1078.8017578125	-934.8529052734377	-163.4382934570313	1032.305297851563	-978.1560668945315	-132.2375946044922	1073.131103515625	-882.0853271484377	-350.7347717285157	1444.520141601563	-708.1808471679689	-368.2674255371094	1243.696533203125	-594.2285766601564	-328.9238891601563	1217.566162109375	-609.5740356445314	-359.3716125488282	1174.886352539063	-578.3623046875001	-338.6119995117188	1106.378295898438	-574.6094360351564	-394.1515197753907	1069.405639648438	-629.4033203125001	-183.9772033691407	1082.7412109375	-799.5089111328127	-161.3174896240235	1035.877563476563	-743.2008056640626	-108.4646987915039	1071.272338867188	-841.537048339844	-287.3000793457032	989.612243652344	-1002.940612792969	-275.6759033203126	999.7725830078127	-750.5056762695314	-442.4009094238282	1052.914428710938	-874.4577636718752	-448.677459716797	1021.000366210938	-900.4896240234377	-445.7924804687501	1022.964904785156	-843.8040161132815	-321.6088562011719	743.0296630859376	-1074.68994140625	-285.0911560058594	666.2233276367189	-1073.976196289063	-239.4533386230469	674.9533081054689	-1058.780883789063	-308.1181030273438	611.3900756835939	-1064.668334960938	-308.2998046875001	503.7028808593751	-1056.631958007813	-266.1619567871094	490.1690368652345	-933.8853149414065	-261.6675415039063	377.9915161132813	-1023.542846679688	-323.9148254394532	344.6701049804688	-1073.474731445313	-284.4866027832032	333.5333557128907	-1053.067016601563	-296.5708923339844	254.6368713378907	-1023.3935546875	-386.937957763672	126.203971862793	-1041.46875	-358.0955505371094	134.7940521240235	-961.4195556640627	-446.2993164062501	99.27361297607425	-1002.086303710938	-243.5009460449219	51.4662437438965	-972.2624511718752	-238.5836639404297	55.19338989257814	-1020.896545410156	-277.5948791503907	43.89823532104493	-1074.09716796875	-328.8276367187501	793.568542480469	-683.1818237304689	-289.3771362304688	741.8730468750001	-688.7740478515626	-259.0458984375001	749.0520629882814	-700.9435424804689	-315.1839294433594	660.1387329101564	-697.7578125000001	-328.7328491210938	505.9798583984376	-728.9524536132814	-295.0059204101563	500.5483703613282	-854.4480590820315	-287.0375061035157	357.9042663574219	-796.9273681640627	-340.1077880859376	282.3316345214844	-737.6213378906251	-305.4461059570313	275.6683654785157	-771.1973266601565	-319.0866088867188	232.185043334961	-807.4013671875002	-392.8201293945314	116.8067626953125	-770.689880371094	-364.8919982910157	139.7725067138672	-850.8167114257815	-450.5608215332032	98.41464996337893	-825.126647949219	-245.6951446533204	58.35715866088869	-836.4443969726565	-246.2553405761719	55.90628814697267	-794.1455078125002	-283.8714904785157	35.50034713745118	-741.9914550781251	nan	nan	nan	
2	0.005	-272.6070861816407	1719.1982421875	-851.4822998046877	-401.7065734863282	1598.510620117188	-940.7999267578127	-451.5334472656251	1480.728759765625	-877.4166259765627	-457.3857727050782	1154.713256835938	-874.5029907226565	-307.7573242187501	1423.099731445313	-871.206970214844	-336.2141723632813	1448.59228515625	-1034.37255859375	-347.9086914062501	1250.841430664063	-1155.944946289063	-307.6410522460938	1227.740356445313	-1136.715698242188	-331.4807434082032	1184.577880859375	-1173.116088867188	-303.1460571289063	1103.386962890625	-1169.892944335938	-375.7566528320313	1085.819702148438	-1113.29833984375	-202.3945770263672	1078.809204101563	-934.8557739257815	-163.4132995605469	1032.311767578125	-978.1448974609377	-132.2331237792969	1073.148559570313	-882.154479980469	-351.0339660644532	1444.623901367188	-708.3167114257814	-368.3322753906251	1243.688720703125	-594.2723388671876	-328.9801330566407	1217.59033203125	-609.6444091796876	-359.4252929687501	1174.882568359375	-578.4097290039064	-338.6353454589844	1106.408325195313	-574.6818847656251	-394.1540527343751	1069.3212890625	-629.4729614257814	-184.0251159667969	1082.797119140625	-799.5651855468752	-161.3541259765625	1035.901245117188	-743.2612304687501	-108.4665145874024	1071.3134765625	-841.538024902344	-287.3130798339844	989.589050292969	-1002.91015625	-275.6655883789063	999.7945556640627	-750.5570068359376	-442.3901672363282	1052.8779296875	-874.4835205078127	-448.663055419922	1020.982055664063	-900.5210571289065	-445.7904357910157	1022.905578613281	-843.804138183594	-321.5770874023438	743.0076293945314	-1074.706787109375	-285.1076660156251	666.2238769531251	-1073.988159179688	-239.4872283935547	674.9545288085939	-1058.788330078125	-308.1375122070313	611.3888549804689	-1064.677490234375	-308.3153686523438	503.702850341797	-1056.65625	-266.1299133300782	490.1670227050782	-933.9107666015627	-261.6456604003907	377.9715881347657	-1023.566955566406	-323.9449157714844	344.6465454101563	-1073.492797851563	-284.4866027832032	333.5333557128907	-1053.067016601563	-296.5735473632813	254.6192779541016	-1023.400024414063	-386.9014282226564	126.1887664794922	-1041.472900390625	-358.0825195312501	134.8070220947266	-961.4168090820315	-446.2983398437501	99.31341552734378	-1002.109313964844	-243.502914428711	51.46495437622072	-972.2634277343752	-238.6327667236329	55.17220687866212	-1020.928405761719	-277.5727539062501	43.90641403198243	-1074.102905273438	-328.8276672363282	793.556823730469	-683.1821289062501	-289.3583374023438	741.8820800781251	-688.7313232421876	-259.0458374023438	749.0521850585939	-700.9354858398439	-315.1812438964844	660.1367797851564	-697.7858276367189	-328.7025146484376	505.9588928222657	-728.9827270507814	-295.0075683593751	500.5439453125001	-854.4499511718752	-287.1209716796876	357.9126281738282	-796.9605712890627	-340.1248474121094	282.3121337890626	-737.6767578125001	-305.4468078613282	275.6493835449219	-771.1876220703127	-319.0878295898438	232.2102203369141	-807.3753051757815	-392.8306884765626	116.8064804077149	-770.6932373046877	-364.9226379394532	139.7118835449219	-850.7459716796877	-450.559051513672	98.40485382080081	-825.1170043945315	-245.7408142089844	58.29111862182619	-836.4624633789065	-246.2590942382813	55.89376449584962	-794.1648559570315	-283.8549194335938	35.47044754028321	-742.0057983398439	nan	nan	nan	
3	0.01	-272.8414306640626	1719.230224609375	-851.6484985351565	-401.9022216796876	1598.534057617188	-940.8894653320315	-451.7088012695314	1480.7119140625	-877.4339599609377	-457.4198303222657	1154.677001953125	-874.559265136719	-307.1215820312501	1422.9580078125	-870.7639160156252	-336.3876647949219	1448.577758789063	-1034.41064453125	-348.0404968261719	1250.831909179688	-1155.976196289063	-307.7424011230469	1227.710815429688	-1136.807739257813	-331.5566406250001	1184.509521484375	-1173.161987304688	-304.1904907226563	1103.586791992188	-1170.318481445313	-375.7661437988282	1085.774780273438	-1113.296630859375	-202.4343414306641	1078.858154296875	-934.924987792969	-163.4759674072266	1032.315551757813	-978.1975097656252	-132.1685943603516	1073.125610351563	-882.239685058594	-351.1437988281251	1444.608154296875	-708.3613281250001	-368.4249267578126	1243.698608398438	-594.3226928710939	-329.0515747070313	1217.599365234375	-609.6922607421876	-359.4997253417969	1174.888305664063	-578.4465332031251	-338.6474914550782	1106.402709960938	-574.7447509765626	-394.2295837402345	1069.356079101563	-629.5663452148439	-184.044662475586	1082.829223632813	-799.5762939453127	-161.3556518554688	1035.941772460938	-743.3436889648439	-108.2800827026367	1071.345703125	-841.4002075195315	-287.3459167480469	989.5249023437502	-1002.966247558594	-275.6375732421876	999.7905883789065	-750.5446777343751	-442.4117126464845	1052.86279296875	-874.5208740234377	-448.6622009277345	1020.954528808594	-900.4935302734377	-445.7619934082032	1022.880493164063	-843.8359985351565	-321.6501159667969	743.0053710937501	-1074.7060546875	-285.0893554687501	666.2319946289064	-1074.003295898438	-239.4517364501954	674.9367065429689	-1058.832763671875	-308.1236267089844	611.3670654296876	-1064.704345703125	-308.3007202148438	503.6789550781251	-1056.646850585938	-266.1255798339844	490.1529235839845	-933.8906860351565	-261.6440734863282	377.9593200683594	-1023.558349609375	-323.9345092773438	344.6058959960938	-1073.5068359375	-284.4866027832032	333.5333557128907	-1053.067016601563	-296.5981750488282	254.6195373535157	-1023.384033203125	-386.911346435547	126.1577987670899	-1041.472900390625	-358.0631408691407	134.7725219726563	-961.4270629882815	-446.302215576172	99.31085205078128	-1002.072021484375	-243.5219116210938	51.46182250976564	-972.2305297851565	-238.5919189453126	55.17358779907228	-1020.900390625	-277.6028442382813	43.90540313720704	-1074.113159179688	-328.7974548339844	793.5809326171877	-683.1748657226564	-289.3450622558594	741.8795776367189	-688.7587280273439	-259.0462341308594	749.0607299804689	-700.9181518554689	-315.1876525878907	660.1473999023439	-697.7854614257814	-328.7159118652344	505.9933166503907	-728.9639282226564	-295.0075683593751	500.5439758300782	-854.4499511718752	-287.0679931640626	357.9272766113282	-796.927917480469	-340.1122131347657	282.3403625488282	-737.6165161132814	-305.4105834960938	275.7016296386719	-771.1729736328127	-319.0709228515626	232.2037506103516	-807.4204711914065	-392.7951049804689	116.8042678833008	-770.700134277344	-364.9967956542969	139.7815551757813	-850.7885742187502	-450.5648803710939	98.41337585449222	-825.1206054687502	-245.7445068359376	58.31420135498048	-836.4714965820315	-246.2130737304688	55.89514160156251	-794.174255371094	-283.8348693847657	35.48468780517579	-741.9811401367189	nan	nan	nan	
4	0.015	-273.0349426269532	1719.234497070313	-851.751647949219	-402.1146850585939	1598.51416015625	-941.0076904296877	-451.7938232421876	1480.694091796875	-877.5062255859377	-457.4505004882814	1154.644775390625	-874.513854980469	-307.2687072753907	1422.9453125	-870.8601074218752	-336.5057678222657	1448.5458984375	-1034.491821289063	-348.1652221679688	1250.772338867188	-1156.001342773438	-307.8724670410157	1227.692260742188	-1136.858764648438	-331.6857299804688	1184.469848632813	-1173.172729492188	-303.3013916015626	1103.330200195313	-1169.941284179688	-375.8973999023438	1085.719482421875	-1113.310424804688	-202.4343414306641	1078.858154296875	-934.924987792969	-163.5518035888672	1032.3173828125	-978.2187500000002	-132.2453765869141	1073.1943359375	-882.1963500976565	-351.1833496093751	1444.645629882813	-708.4284057617189	-368.4302368164063	1243.700561523438	-594.3787231445314	-329.1062011718751	1217.615966796875	-609.7440185546876	-359.5461425781251	1174.897583007813	-578.5272827148439	-338.6999816894532	1106.39599609375	-574.7766113281251	-394.2613830566407	1069.31640625	-629.6258544921876	-184.0445709228516	1082.860107421875	-799.6336669921877	-161.3555755615235	1035.962890625	-743.3435668945314	-108.5138320922852	1071.372802734375	-841.6275634765627	-287.3375244140626	989.5428466796877	-1003.000305175781	-275.6135559082032	999.7911376953127	-750.5842895507814	-442.3521118164064	1052.84228515625	-874.494812011719	-448.6550903320314	1020.923400878906	-900.5104980468752	-445.7528381347657	1022.856811523438	-843.8380126953127	-321.6031494140626	743.0053100585939	-1074.725830078125	-285.0790710449219	666.2308959960939	-1074.017700195313	-239.4494628906251	674.9246215820314	-1058.826782226563	-308.1071777343751	611.3732910156251	-1064.709594726563	-308.3085021972657	503.6350708007814	-1056.662475585938	-266.1046447753907	490.1445312500001	-933.872741699219	-261.6519470214844	377.9375305175782	-1023.559020996094	-323.9367370605469	344.6413574218751	-1073.511962890625	-284.4649963378907	333.5511474609376	-1053.0966796875	-296.5728149414063	254.6424560546876	-1023.366821289063	-386.9034118652345	126.1882858276367	-1041.464111328125	-358.0631408691407	134.7725067138672	-961.4270629882815	-446.2869262695314	99.30554962158206	-1002.081909179688	-243.5363311767579	51.45121383666994	-972.289733886719	-238.6300659179688	55.19841384887697	-1020.902587890625	-277.6112670898438	43.88850402832032	-1074.083862304688	-328.7679748535157	793.5953369140627	-683.2042236328126	-289.2815246582032	741.8832397460939	-688.7800903320314	-259.1752624511719	749.1636352539064	-701.0935058593751	-315.1767578125001	660.1604614257814	-697.7633056640626	-328.7308654785157	506.0099487304689	-728.9726562500001	-294.9883728027344	500.5429687500001	-854.4973754882815	-287.0879211425782	357.9026184082032	-796.9830322265627	-340.0848999023438	282.3278808593751	-737.6200561523439	-305.4940490722657	275.6719665527344	-771.2082519531252	-319.1512756347657	232.1747131347657	-807.466979980469	-392.7999267578126	116.8289413452149	-770.7083740234377	-364.9833374023438	139.7469940185547	-850.813903808594	-450.5448608398439	98.42728424072268	-825.1257324218752	-245.7369232177735	58.33810424804689	-836.4238891601565	-246.224838256836	55.89598846435548	-794.195739746094	-283.8533325195313	35.48715209960938	-742.0057983398439	nan	nan	nan	
